<?xml version="1.0" standalone="no"?>
<!DOCTYPE svg PUBLIC "-//W3C//DTD SVG 20010904//EN"
 "http://www.w3.org/TR/2001/REC-SVG-20010904/DTD/svg10.dtd">
<svg version="1.0" xmlns="http://www.w3.org/2000/svg"
 width="342.000000pt" height="126.000000pt" viewBox="0 0 342.000000 126.000000"
 preserveAspectRatio="xMidYMid meet">

<g transform="translate(0.000000,126.000000) scale(0.100000,-0.100000)"
fill="#000000" stroke="none">
<path d="M0 1130 l0 -130 160 0 160 0 0 -120 0 -120 -160 0 -160 0 0 -370 0
-370 160 0 160 0 0 370 0 370 135 0 135 0 0 -375 0 -375 150 0 150 0 0 375 0
375 123 0 123 0 86 -372 85 -373 191 -3 190 -2 15 67 c9 38 35 164 58 280 24
117 46 213 49 213 3 0 29 -118 58 -262 29 -145 56 -271 58 -280 5 -16 23 -18
194 -18 l189 0 10 38 c6 20 24 100 42 177 17 77 35 146 39 154 5 9 13 -2 24
-36 66 -200 257 -334 477 -335 153 -1 279 52 378 158 96 102 133 201 132 354
-1 255 -179 457 -432 488 -161 20 -305 -22 -416 -122 -28 -25 -53 -46 -56 -46
-2 0 4 35 14 78 10 42 18 78 19 80 0 1 -74 2 -165 2 -91 0 -165 -2 -165 -5 0
-7 -79 -545 -85 -584 -4 -18 -8 -31 -10 -29 -5 4 -135 596 -135 611 0 4 -76 7
-170 7 -93 0 -170 -2 -170 -5 0 -13 -131 -609 -135 -613 -7 -7 -13 28 -50 298
-20 140 -38 270 -42 288 l-5 32 -544 0 -544 0 0 130 0 130 -160 0 -160 0 0
-130z m3000 -415 c70 -37 101 -98 102 -200 1 -147 -67 -225 -197 -225 -124 0
-195 80 -195 219 0 127 51 201 150 222 42 9 106 1 140 -16z"/>
</g>
</svg>
